# xmcd
#
# Track frame offsets:
#	150
#	11382
#	18932
#	38607
#	50292
#	66572
#	82250
#
# Disc length: 2156 seconds
#
# Revision: 0
# Processed by: cddbd v1.5.1PL0 Copyright (c) Steve Scherf et al.
# Submitted via: EasyCDDAExtractor 7.7.0.1
#
DISCID=50086a07
DTITLE=Drag the River - Hey Buddies...
DYEAR=2004
DGENRE=Country
TTITLE0=Hang Dog
TTITLE1=Columbus Stockade Blues
TTITLE2=So Long Hoss
TTITLE3=Deminer
TTITLE4=Kelly Country
TTITLE5=Modern Drunkard
TTITLE6=Hey Buddies...
EXTD=
EXTT0=
EXTT1=
EXTT2=
EXTT3=
EXTT4=
EXTT5=
EXTT6=
PLAYORDER=
